<?xml version="1.0" standalone="no"?>
<!DOCTYPE svg PUBLIC "-//W3C//DTD SVG 20010904//EN"
 "http://www.w3.org/TR/2001/REC-SVG-20010904/DTD/svg10.dtd">
<svg version="1.0" xmlns="http://www.w3.org/2000/svg"
 width="1509.000000pt" height="1509.000000pt" viewBox="0 0 1509.000000 1509.000000"
 preserveAspectRatio="xMidYMid meet">
<metadata>
Created by potrace 1.11, written by Peter Selinger 2001-2013
</metadata>
<g transform="translate(0.000000,1509.000000) scale(0.100000,-0.100000)"
fill="#000000" stroke="none">
<path d="M4348 8600 c3 -1510 1 -1711 -13 -1792 -65 -376 -313 -702 -660 -868
-176 -84 -337 -115 -557 -107 -185 6 -301 33 -454 106 -135 65 -211 117 -323
226 -473 457 -481 1210 -16 1680 342 347 856 449 1305 260 33 -14 62 -25 65
-25 3 0 5 234 5 519 l0 519 -52 12 c-197 42 -232 45 -488 44 -234 0 -266 -3
-392 -27 -944 -185 -1649 -945 -1759 -1896 -15 -137 -7 -475 16 -596 85 -464
290 -861 604 -1174 460 -459 1099 -691 1736 -631 328 31 673 147 938 314 55
34 89 51 92 43 2 -7 8 -77 15 -157 6 -80 13 -155 16 -168 l4 -22 458 2 457 3
3 2718 2 2717 -502 0 -503 0 3 -1700z"/>
<path d="M13088 8543 l-3 -1758 -26 -85 c-102 -334 -312 -592 -605 -742 -177
-91 -333 -128 -539 -128 -334 0 -613 115 -845 350 -225 226 -340 509 -340 836
0 324 114 598 344 830 188 189 406 300 666 340 234 35 430 6 688 -103 9 -4 12
103 12 515 l0 521 -72 15 c-158 33 -200 38 -398 43 -236 6 -375 -8 -580 -58
-296 -73 -599 -222 -836 -413 -89 -71 -268 -251 -337 -339 -146 -185 -288
-441 -355 -642 -263 -779 -84 -1611 473 -2203 645 -684 1664 -875 2510 -468
72 34 167 85 212 113 l82 51 6 -66 c4 -37 12 -116 18 -177 l12 -110 458 -3
457 -2 0 2720 0 2720 -500 0 -500 0 -2 -1757z"/>
<path d="M7615 9213 c-474 -24 -912 -178 -1184 -416 -195 -171 -321 -398 -361
-649 -18 -110 -8 -339 19 -448 46 -181 167 -379 313 -515 220 -204 469 -336
1073 -570 388 -151 529 -223 639 -326 79 -74 108 -135 108 -227 -1 -152 -119
-274 -324 -333 -114 -33 -337 -38 -495 -10 -216 36 -423 106 -637 213 -188 94
-308 180 -548 390 -42 38 -80 68 -85 68 -4 0 -7 -255 -5 -567 l3 -568 26 -22
c45 -37 232 -140 359 -197 223 -101 462 -171 734 -213 166 -26 636 -26 800 0
676 108 1146 463 1276 964 37 140 44 348 16 488 -83 418 -372 708 -968 973
-61 28 -237 98 -390 157 -154 59 -328 129 -388 156 -297 131 -422 262 -401
416 34 239 290 361 696 332 328 -23 669 -141 896 -310 29 -22 56 -39 61 -39
10 0 412 753 412 771 0 14 -28 37 -130 107 -389 267 -943 404 -1515 375z"/>
</g>
</svg>
