<?xml version="1.0" standalone="no"?>
<!DOCTYPE svg PUBLIC "-//W3C//DTD SVG 20010904//EN"
 "http://www.w3.org/TR/2001/REC-SVG-20010904/DTD/svg10.dtd">
<svg version="1.0" xmlns="http://www.w3.org/2000/svg"
 width="383.000000pt" height="383.000000pt" viewBox="0 0 383.000000 383.000000"
 preserveAspectRatio="xMidYMid meet">
<metadata>
Created by potrace 1.11, written by Peter Selinger 2001-2013
</metadata>
<g transform="translate(0.000000,383.000000) scale(0.100000,-0.100000)"
fill="#000000" stroke="none">
<path d="M415 3815 c-90 -19 -171 -62 -242 -129 -111 -103 -154 -199 -159
-352 -4 -108 4 -150 42 -233 57 -124 163 -220 292 -266 50 -18 52 -20 47 -50
-23 -124 -27 -171 -22 -255 9 -135 22 -191 75 -310 53 -121 107 -183 563 -638
249 -249 455 -452 458 -452 3 0 89 84 191 185 l184 185 -435 438 c-240 240
-446 451 -457 468 -54 79 -61 206 -18 299 92 197 341 240 508 87 l27 -25 186
186 186 187 -18 24 c-28 37 -172 140 -237 171 -56 25 -168 67 -174 64 -1 0
-35 5 -75 11 -68 12 -222 8 -288 -6 -24 -5 -27 -2 -33 28 -10 56 -70 170 -117
222 -118 133 -309 196 -484 161z"/>
<path d="M3203 3814 c-113 -23 -231 -97 -307 -194 -37 -46 -86 -162 -90 -212
-2 -17 -18 -17 -91 -3 -78 15 -230 14 -320 -1 -120 -19 -291 -106 -391 -196
-90 -82 -884 -877 -884 -886 0 -4 83 -90 185 -192 l185 -185 443 441 c243 242
454 448 469 457 79 49 203 53 292 11 71 -34 113 -76 148 -151 57 -121 31 -258
-69 -361 -7 -7 -13 -17 -13 -20 0 -4 83 -90 185 -192 l184 -184 22 20 c74 66
169 218 208 329 51 149 60 349 22 482 -9 31 -9 32 32 38 23 4 75 23 116 42
179 85 293 275 286 476 -13 317 -302 544 -612 481z"/>
<path d="M2120 2485 c-101 -101 -182 -187 -180 -189 3 -3 201 -203 441 -443
240 -241 444 -454 455 -473 47 -90 46 -212 -4 -303 -96 -177 -329 -214 -486
-77 l-37 33 -185 -184 c-101 -101 -184 -187 -184 -191 0 -5 18 -24 40 -44 133
-120 264 -186 434 -219 85 -16 258 -12 338 8 l57 14 22 -64 c117 -353 583
-458 842 -190 98 101 139 198 143 340 3 80 0 110 -20 171 -54 170 -193 302
-361 341 -27 7 -49 17 -48 24 32 146 20 332 -32 477 -61 169 -80 191 -578 692
-254 254 -464 462 -467 462 -3 0 -88 -83 -190 -185z"/>
<path d="M609 1818 c-193 -199 -271 -469 -223 -770 5 -33 3 -38 -14 -38 -11 0
-51 -16 -89 -35 -159 -79 -269 -247 -278 -422 -11 -234 128 -440 350 -519 78
-28 252 -25 330 6 150 58 271 181 311 316 l14 51 68 -13 c62 -12 240 -12 287
-1 11 3 43 11 70 17 73 18 208 83 278 134 34 24 262 245 507 490 l444 445
-184 186 c-102 102 -188 185 -192 185 -3 0 -204 -198 -446 -440 -373 -373
-448 -444 -494 -464 -127 -56 -267 -29 -363 71 -68 70 -99 201 -70 297 18 60
30 80 72 127 l36 39 -185 185 c-102 102 -188 185 -191 185 -4 0 -21 -15 -38
-32z"/>
</g>
</svg>
